<svg width="160" height="52" viewBox="0 0 160 52" fill="none" xmlns="http://www.w3.org/2000/svg">
<g clip-path="url(#clip0_310_71)">
<path d="M32.5238 17.6052C32.1436 16.178 31.0172 15.0529 29.5862 14.6676C26.9967 13.9751 16.6082 13.9751 16.6082 13.9751C16.6082 13.9751 6.22488 13.9751 3.63032 14.6676C2.20312 15.0477 1.078 16.1741 0.692724 17.6052C0.000244141 20.1946 0.000244141 25.6001 0.000244141 25.6001C0.000244141 25.6001 0.000244141 31.0055 0.692724 33.5949C1.07288 35.0221 2.19928 36.1473 3.63032 36.5325C6.22488 37.225 16.6082 37.225 16.6082 37.225C16.6082 37.225 26.9967 37.225 29.5862 36.5325C31.0134 36.1524 32.1385 35.026 32.5238 33.5949C33.2162 31.0055 33.2162 25.6001 33.2162 25.6001C33.2162 25.6001 33.2162 20.1946 32.5238 17.6052Z" fill="#FFEAEA"/>
<path d="M13.2893 30.5831L21.9191 25.6001L13.2893 20.6171V30.5831Z" fill="black"/>
<path d="M48.2126 35.127C47.5573 34.6829 47.0875 33.9968 46.8123 33.0611C46.5371 32.1254 46.395 30.8838 46.395 29.3299V27.2166C46.395 25.6473 46.5537 24.3891 46.8712 23.4381C47.1886 22.487 47.6853 21.7945 48.356 21.3619C49.0267 20.928 49.9099 20.7065 51.003 20.7065C52.0808 20.7065 52.9422 20.928 53.5925 21.3721C54.2427 21.8163 54.7176 22.5088 55.0197 23.4483C55.3205 24.3891 55.4689 25.6461 55.4689 27.2102V29.3235C55.4689 30.8774 55.3205 32.1241 55.0299 33.0649C54.7393 34.0057 54.2632 34.6982 53.6027 35.1309C52.9473 35.5648 52.0539 35.7862 50.9288 35.7862C49.7768 35.7926 48.868 35.5712 48.2126 35.127ZM51.8952 32.8448C52.0744 32.3686 52.1704 31.5929 52.1704 30.5203V25.9814C52.1704 24.9357 52.0808 24.1741 51.8952 23.6877C51.716 23.2064 51.3934 22.9632 50.9339 22.9632C50.4897 22.9632 50.1787 23.2064 49.9931 23.6877C49.8139 24.1689 49.7179 24.9344 49.7179 25.9814V30.5203C49.7179 31.5981 49.8024 32.375 49.9765 32.8448C50.1505 33.3209 50.468 33.5577 50.9275 33.5577C51.3934 33.5577 51.7109 33.3197 51.8952 32.8448Z" fill="white"/>
<path d="M98.6601 29.367V30.1018C98.6601 31.0374 98.687 31.735 98.7446 32.2048C98.797 32.6694 98.9135 33.0138 99.0876 33.225C99.2617 33.4362 99.5318 33.5475 99.8966 33.5475C100.388 33.5475 100.726 33.3568 100.905 32.9766C101.084 32.5965 101.186 31.9616 101.201 31.0746L104.028 31.2384C104.044 31.3651 104.05 31.5392 104.05 31.7619C104.05 33.1098 103.68 34.1133 102.946 34.7789C102.211 35.4445 101.17 35.7773 99.8223 35.7773C98.2057 35.7773 97.0742 35.2704 96.4252 34.2554C95.775 33.2403 95.4524 31.6762 95.4524 29.5526V27.0106C95.4524 24.823 95.7903 23.232 96.461 22.2234C97.1318 21.2198 98.2838 20.7168 99.917 20.7168C101.042 20.7168 101.904 20.9229 102.506 21.335C103.109 21.7472 103.532 22.3872 103.78 23.2589C104.023 24.1306 104.15 25.335 104.15 26.8685V29.3632H98.6601V29.367ZM99.0774 23.2384C98.9135 23.4445 98.8022 23.7824 98.7446 24.247C98.687 24.7117 98.6601 25.4259 98.6601 26.3718V27.4176H101.059V26.3718C101.059 25.4362 101.027 24.7283 100.964 24.247C100.9 23.7658 100.785 23.4227 100.621 23.2269C100.457 23.031 100.199 22.9312 99.8492 22.9312C99.4998 22.9261 99.2412 23.0323 99.0774 23.2384Z" fill="white"/>
<path d="M40.2332 29.0931L36.502 15.6237H39.757L41.0626 21.7268C41.3954 23.2333 41.6386 24.512 41.7973 25.5731H41.892C42.0034 24.8128 42.2466 23.5392 42.6267 21.7472L43.9797 15.6173H47.2347L43.4613 29.0919V35.5546H40.2332V29.0931Z" fill="white"/>
<path d="M66.0519 20.9921V35.5495H63.4894L63.2039 33.769H63.1348C62.4372 35.1169 61.3914 35.7876 60.0013 35.7876C59.0349 35.7876 58.3207 35.4701 57.8612 34.8365C57.4017 34.2029 57.1738 33.2148 57.1738 31.8669V20.9921H60.4494V31.6813C60.4494 32.3316 60.5185 32.7962 60.6605 33.0714C60.8026 33.3466 61.0407 33.4887 61.3735 33.4887C61.659 33.4887 61.9342 33.4042 62.1927 33.2301C62.4513 33.0561 62.6471 32.8333 62.7738 32.5645V20.9921H66.0519Z" fill="white"/>
<path d="M82.8661 20.9921V35.5495H80.3036L80.0181 33.769H79.949C79.2514 35.1169 78.2056 35.7876 76.8156 35.7876C75.8492 35.7876 75.1349 35.4701 74.6754 34.8365C74.2159 34.2029 73.988 33.2148 73.988 31.8669V20.9921H77.2636V31.6813C77.2636 32.3316 77.3327 32.7962 77.4748 33.0714C77.6168 33.3466 77.8549 33.4887 78.1877 33.4887C78.4732 33.4887 78.7484 33.4042 79.0069 33.2301C79.2655 33.0561 79.4613 32.8333 79.588 32.5645V20.9921H82.8661Z" fill="white"/>
<path d="M74.9609 18.2605H71.7059V35.5507H68.4982V18.2605H65.2432V15.6237H74.9558V18.2605H74.9609Z" fill="white"/>
<path d="M93.7142 23.3229C93.5133 22.4039 93.1958 21.7383 92.7529 21.3261C92.3088 20.9139 91.7008 20.7079 90.9251 20.7079C90.3222 20.7079 89.7629 20.8768 89.2393 21.2199C88.7158 21.5578 88.3152 22.0071 88.0297 22.5626H88.0029V14.8903H84.8425V35.5559H87.5485L87.8813 34.1773H87.9504C88.2038 34.6688 88.584 35.0541 89.0921 35.3395C89.599 35.625 90.1597 35.7671 90.7779 35.7671C91.8877 35.7671 92.7017 35.2551 93.224 34.2349C93.7475 33.2147 94.0061 31.6199 94.0061 29.4477V27.1437C94.0099 25.5155 93.9101 24.2419 93.7142 23.3229ZM90.7075 29.2621C90.7075 30.3245 90.6653 31.1539 90.5757 31.7568C90.4912 32.3597 90.3427 32.7872 90.1366 33.0407C89.9305 33.2941 89.6553 33.4208 89.3072 33.4208C89.0371 33.4208 88.7888 33.3568 88.5571 33.2301C88.3293 33.1034 88.1398 32.9127 87.9965 32.6592V24.3891C88.1078 23.9923 88.2973 23.6711 88.5673 23.4163C88.8374 23.1629 89.128 23.0362 89.4441 23.0362C89.7769 23.0362 90.0355 23.168 90.216 23.4266C90.3952 23.6851 90.5219 24.1293 90.5961 24.7424C90.6653 25.3607 90.7024 26.2375 90.7024 27.3792V29.2608H90.7075V29.2621Z" fill="white"/>
<path d="M113.02 15.6238H108.548V35.7671H111.455V19.4075L114.66 35.7671H117.343L120.697 19.035V35.7876H123.529V15.6238H118.908L116.039 31.5559L113.02 15.6238Z" fill="white"/>
<path d="M132.1 35.7876H134.411V20.9921H131.28V32.6746C130.757 33.5693 128.895 34.3143 128.895 32.5261C128.895 30.738 128.895 20.9933 128.895 20.9933H125.764C125.764 20.9933 125.764 30.4397 125.764 32.9741C125.764 35.5085 129.193 37.7447 131.578 33.9431L132.1 35.7876Z" fill="white"/>
<path d="M149.391 20.9921H146.485V35.7876H149.391V20.9921Z" fill="white"/>
<path d="M148.013 19.2589C147.008 19.2589 146.187 18.4371 146.187 17.4323V16.9856C146.187 15.9808 147.008 15.1591 148.013 15.1591C149.018 15.1591 149.84 15.9808 149.84 16.9856V17.4323C149.838 18.4371 149.018 19.2589 148.013 19.2589Z" fill="white"/>
<path d="M141.79 25.7063H144.324C144.398 24.4762 144.473 20.7501 140.522 20.7501C137.243 20.7501 136.348 22.8365 136.348 24.7002C136.348 26.5639 137.293 27.8797 139.976 29.9674C142.262 31.1604 142.361 33.8932 140.473 33.8932C139.578 33.8932 139.031 33.2967 139.031 32.4519C139.031 31.6071 139.031 31.1104 139.031 31.1104H136.348C136.348 31.1104 136.348 32.2535 136.348 32.6503C136.348 33.9917 137.243 36.0295 140.373 36.0295C143.504 36.0295 144.597 34.29 144.597 31.6071C144.597 28.9242 138.933 26.29 138.933 24.4519C138.933 22.3156 141.753 22.5511 141.753 24.1037L141.79 25.7063Z" fill="white"/>
<path d="M154.733 24.5005C154.435 27.8797 154.683 30.4628 154.783 32.1025C154.919 34.3348 157.267 34.3386 157.267 32.0525C157.267 30.5127 157.267 30.4129 157.267 30.4129H160C160 33.394 158.957 35.8285 156.024 35.8285C152.595 35.8285 151.602 33.394 151.602 30.8097C151.602 28.2253 151.602 26.4871 151.602 26.4871C151.602 23.0093 153.093 20.6733 155.925 20.6733C159.701 20.6733 159.8 23.3562 159.8 24.5991C159.8 25.8407 159.8 26.2388 159.8 26.2388L157.266 26.4372C157.266 26.4372 157.266 25.8407 157.266 24.4493C157.267 23.0593 155.528 21.8177 154.733 24.5005Z" fill="white"/>
</g>
<defs>
<clipPath id="clip0_310_71">
<rect width="160" height="51.2" fill="white" transform="translate(0.000244141)"/>
</clipPath>
</defs>
</svg>
